<?xml version="1.0" standalone="no"?>
<!DOCTYPE svg PUBLIC "-//W3C//DTD SVG 20010904//EN"
 "http://www.w3.org/TR/2001/REC-SVG-20010904/DTD/svg10.dtd">
<svg version="1.0" xmlns="http://www.w3.org/2000/svg"
 width="512.000000pt" height="512.000000pt" viewBox="0 0 512.000000 512.000000"
 preserveAspectRatio="xMidYMid meet">

<g transform="translate(0.000000,512.000000) scale(0.100000,-0.100000)"
fill="#000000" stroke="none">
<path d="M2330 4888 c-306 -29 -660 -143 -933 -302 -864 -503 -1312 -1467
-1136 -2447 82 -456 309 -888 644 -1224 368 -369 813 -593 1330 -671 166 -25
485 -25 650 0 781 118 1430 590 1776 1291 243 494 304 1063 169 1592 -288
1126 -1343 1870 -2500 1761z m270 -784 c107 -50 184 -130 225 -231 l23 -55 54
-4 c97 -6 205 -59 268 -130 47 -55 89 -146 101 -224 9 -62 15 -76 44 -101 78
-69 126 -177 127 -285 l0 -71 55 -23 c126 -52 238 -200 263 -347 27 -165 -58
-358 -195 -438 -41 -25 -42 -27 -47 -88 -16 -195 -202 -320 -383 -259 -49 17
-63 18 -75 8 -8 -7 -77 -68 -154 -137 l-139 -124 7 -215 c4 -118 9 -223 12
-232 5 -17 -8 -18 -181 -18 l-186 0 6 58 c17 167 25 496 25 1003 0 498 2 568
15 573 13 5 15 36 13 227 l-3 222 -110 67 c-60 37 -113 74 -118 82 -7 10 0 23
22 45 61 61 25 152 -60 153 -82 0 -119 -94 -59 -150 22 -20 30 -37 30 -62 0
-31 6 -37 115 -106 l115 -74 0 -184 c0 -101 -4 -184 -8 -184 -4 0 -36 28 -70
63 -59 59 -62 65 -52 91 13 36 3 72 -27 96 -31 24 -64 25 -103 5 -31 -16 -55
-70 -44 -101 12 -34 47 -64 73 -64 20 0 49 -22 114 -88 l88 -88 2 -357 c1
-196 -1 -357 -4 -357 -3 0 -35 22 -70 48 -35 27 -83 61 -106 75 l-43 27 0 263
0 263 -45 34 c-43 32 -44 34 -38 76 5 38 2 46 -25 73 -43 43 -90 43 -127 -1
-22 -26 -26 -39 -21 -67 6 -40 45 -81 77 -81 11 0 40 -15 64 -32 l44 -33 1
-228 0 -228 -38 23 c-194 119 -292 182 -292 189 0 4 12 20 26 34 22 22 25 33
21 63 -18 113 -177 107 -177 -7 0 -31 6 -44 30 -64 17 -15 30 -35 30 -49 0
-19 34 -44 213 -152 245 -148 340 -211 417 -275 65 -54 70 -60 70 -86 0 -15
-9 -10 -47 26 -27 25 -67 60 -91 78 l-42 33 -50 -45 c-37 -34 -66 -49 -114
-62 -79 -21 -131 -15 -201 24 -33 19 -70 30 -111 33 -222 20 -407 268 -366
489 15 82 61 177 107 224 l38 37 -16 47 c-72 202 24 432 218 522 l65 31 0 47
c0 124 75 258 182 327 27 17 35 28 31 43 -7 29 16 130 43 184 50 102 135 177
244 217 45 17 74 20 155 17 87 -2 108 -6 165 -33z"/>
<path d="M2759 3401 c-42 -43 -34 -104 17 -132 14 -7 24 -21 24 -35 0 -12 2
-29 5 -36 4 -9 -29 -45 -90 -98 l-95 -83 0 -251 c0 -223 2 -254 17 -276 15
-21 19 -55 23 -205 4 -160 7 -183 25 -207 11 -15 24 -28 29 -28 5 0 138 128
296 285 157 157 291 285 298 285 7 0 24 11 37 25 27 26 33 72 15 106 -16 29
-67 51 -101 44 -57 -13 -90 -95 -54 -135 13 -15 -8 -39 -228 -258 -279 -279
-254 -274 -256 -57 l0 130 194 199 195 198 0 47 c0 38 5 51 30 74 18 17 30 39
30 53 0 62 -58 112 -114 98 -63 -16 -88 -103 -41 -150 18 -18 25 -36 25 -62 0
-35 -11 -48 -175 -212 l-175 -175 0 225 1 225 33 25 c19 14 61 51 94 82 l61
56 -6 50 c-5 42 -2 55 16 78 72 91 -48 197 -130 115z"/>
<path d="M3362 2427 c-15 -16 -22 -36 -22 -64 0 -38 -4 -44 -62 -90 l-61 -48
2 -71 2 -70 -75 -63 -76 -63 23 -28 22 -27 25 19 c14 11 51 44 83 75 l57 54 0
68 0 69 56 45 c44 37 63 46 90 45 73 -3 111 85 63 146 -28 35 -95 37 -127 3z"/>
<path d="M2885 1939 c-16 -3 -49 -7 -72 -8 l-43 -1 0 -116 c0 -109 1 -116 18
-103 78 62 211 184 205 189 -34 29 -81 46 -108 39z"/>
</g>
</svg>
